<svg width="279" height="241" viewBox="0 0 279 241" fill="none" xmlns="http://www.w3.org/2000/svg">
<g clip-path="url(#clip0_128_42)">
<path d="M271.556 50.1111C267.778 43.6944 261.694 38.6389 254.667 36.1667C251.639 35.1111 248 34.6111 245.528 36.6389C243.056 38.6667 243.917 43.8611 247.111 43.7778C237.25 36.9444 225.361 33.0833 213.361 32.7778C210.361 32.6944 206.944 33.0278 205.056 35.3611C203.139 37.6944 204.75 42.3055 207.694 41.7778C198.639 35.9722 186.694 37.75 176.556 41.3611C173.611 42.4167 170.694 43.5833 167.778 44.75C164.583 46.0278 165.528 50.7778 168.972 50.75L271.556 50.1111ZM13.8611 17C10.0833 17.9167 6.25 14.7778 7.05555 12.1389C7.86111 9.5 11.5278 7.69444 15.2222 6.61111C23.5833 4.16666 33.5 4.19444 41.8333 6.69444C39.8889 5.69444 40.0556 3.58333 41.5833 2.33333C43.1389 1.08333 45.6111 0.527773 48 0.222217C59.3889 -1.22223 71.8611 2.11111 78.5556 8.44444C76.3611 6.88889 77.5555 4.11111 80.1944 2.94444C82.8333 1.77777 86.3333 1.77777 89.4722 2.16666C102.972 3.77777 114.417 8.69444 117 17.6944L13.8611 17Z" fill="#80A495"/>
<path d="M7.72222 227.556C18.5833 206.667 30.5278 186.333 43.5 166.694C48.7222 158.778 54.6111 150.556 63.3889 146.917C71.0833 143.722 80.0833 144.667 87.6667 148.167C95.2222 151.667 101.5 157.528 106.694 164.056C111.167 169.639 115.944 176.361 123.083 176.944C130.694 177.583 136.722 170.917 141.417 164.861C156.833 145 172.25 125.111 187.667 105.25C192.778 98.6667 199.083 91.4722 207.389 91.5C214.833 91.5278 220.861 97.4167 225.5 103.25C252.722 137.389 263.333 181.472 273.194 223.972L7.72222 227.556Z" fill="#F7F7F7"/>
<path d="M259.5 187.972C270.484 187.972 279.389 179.068 279.389 168.083C279.389 157.099 270.484 148.194 259.5 148.194C248.516 148.194 239.611 157.099 239.611 168.083C239.611 179.068 248.516 187.972 259.5 187.972Z" fill="#80A495"/>
<path d="M259.389 222.972C259.083 222.917 258.889 222.639 258.889 222.333V174.194C258.889 173.861 259.139 173.556 259.472 173.556C259.833 173.528 260.111 173.806 260.111 174.167V222.389C260.111 222.75 259.778 223.056 259.389 222.972Z" fill="#80A495"/>
<path d="M259.5 178.194C259.333 178.194 259.194 178.139 259.056 178.028C258.806 177.778 258.806 177.389 259.056 177.167L264.5 171.722C264.75 171.472 265.139 171.472 265.361 171.722C265.611 171.972 265.611 172.361 265.361 172.583L259.944 178.028C259.806 178.139 259.667 178.194 259.5 178.194ZM259.5 183.25C259.333 183.25 259.194 183.194 259.056 183.083C258.806 182.833 258.806 182.444 259.056 182.222L264.5 176.778C264.75 176.528 265.139 176.528 265.361 176.778C265.611 177.028 265.611 177.417 265.361 177.639L259.944 183.083C259.806 183.194 259.667 183.25 259.5 183.25Z" fill="#80A495"/>
<path d="M31.1944 190.361C48.2079 190.361 62 176.569 62 159.556C62 142.542 48.2079 128.75 31.1944 128.75C14.181 128.75 0.388885 142.542 0.388885 159.556C0.388885 176.569 14.181 190.361 31.1944 190.361Z" fill="#80A495"/>
<path d="M31.1944 220.417C30.8056 220.417 30.5 220.111 30.5 219.722V159.556C30.5 159.167 30.8056 158.861 31.1944 158.861C31.5833 158.861 31.8889 159.167 31.8889 159.556V219.694C31.9167 220.083 31.5833 220.417 31.1944 220.417Z" fill="#80A495"/>
<path d="M31.1944 176.194C31.0278 176.194 30.8333 176.139 30.6944 176L22.0833 167.389C21.8056 167.111 21.8056 166.667 22.0833 166.389C22.3611 166.111 22.8056 166.111 23.0833 166.389L31.6944 175.028C31.9722 175.306 31.9722 175.75 31.6944 176.028C31.5556 176.139 31.3889 176.194 31.1944 176.194ZM31.1944 184.222C31.0278 184.222 30.8333 184.167 30.6944 184.028L22.0833 175.417C21.8056 175.139 21.8056 174.694 22.0833 174.417C22.3611 174.139 22.8056 174.139 23.0833 174.417L31.6944 183.028C31.9722 183.306 31.9722 183.75 31.6944 184.028C31.5556 184.139 31.3889 184.222 31.1944 184.222Z" fill="#80A495"/>
<path d="M12.8611 217.139H268.056C272.083 217.139 275.333 220.389 275.333 224.417V233.528C275.333 237.556 272.083 240.806 268.056 240.806H12.8611C8.83333 240.806 5.58333 237.556 5.58333 233.528V224.417C5.58333 220.417 8.83333 217.139 12.8611 217.139Z" fill="#F2F2F2"/>
<path d="M185.833 94.5833C209.244 94.5833 228.222 75.6052 228.222 52.1944C228.222 28.7837 209.244 9.80555 185.833 9.80555C162.423 9.80555 143.444 28.7837 143.444 52.1944C143.444 75.6052 162.423 94.5833 185.833 94.5833Z" stroke="#FFBE55" stroke-width="0.333333" stroke-miterlimit="10"/>
<path d="M179.222 101.194C187.972 105.472 185.417 113.667 185.417 113.667C185.417 113.667 180.528 120.722 171.75 116.444C163 112.167 153.694 98.1667 153.694 98.1667C153.694 98.1667 170.472 96.9167 179.222 101.194Z" fill="#80A495"/>
<path d="M179.222 101.194C187.972 105.472 185.417 113.667 185.417 113.667L153.694 98.1667C153.694 98.1667 170.472 96.9167 179.222 101.194Z" fill="#80A495"/>
<path d="M193.167 147.056C184.417 151.333 186.972 159.528 186.972 159.528C186.972 159.528 191.861 166.583 200.639 162.306C209.389 158.028 218.694 144.028 218.694 144.028C218.694 144.028 201.944 142.778 193.167 147.056Z" fill="#80A495"/>
<path d="M193.167 147.056C184.417 151.333 186.972 159.528 186.972 159.528L218.694 144.028C218.694 144.028 201.944 142.778 193.167 147.056ZM213.417 219.972C202.278 233.889 185.417 227.556 185.417 227.556C185.417 227.556 175.528 212.5 186.667 198.556C197.806 184.611 228.833 173.25 228.833 173.25C228.833 173.25 224.556 206.028 213.417 219.972Z" fill="#80A495"/>
<path d="M213.417 219.972C202.278 233.889 185.417 227.556 185.417 227.556L228.833 173.25C228.833 173.25 224.556 206.028 213.417 219.972Z" fill="#80A495"/>
<path d="M158.444 219.972C169.583 233.889 186.444 227.556 186.444 227.556C186.444 227.556 196.333 212.5 185.194 198.556C174.056 184.639 143.028 173.25 143.028 173.25C143.028 173.25 147.306 206.028 158.444 219.972Z" fill="#80A495"/>
<path d="M158.444 219.972C169.583 233.889 186.444 227.556 186.444 227.556L143.028 173.25C143.028 173.25 147.306 206.028 158.444 219.972Z" fill="#80A495"/>
<path d="M130.444 110.444L122.472 113L121.306 112.444L119.056 110.222L119.278 106.583L123.694 106.472L130.444 110.444Z" fill="#FCD2B1"/>
<path d="M103.889 63.7778C103.889 63.7778 101.167 95.2222 123.667 106.472C122.75 107.556 118.972 109.278 118.972 109.278C118.972 109.278 96.9444 95.9167 97.7222 81.0833C98.5 66.25 103.889 63.7778 103.889 63.7778Z" fill="#80A495"/>
<path d="M61.25 207.139C61.25 207.139 64.1944 220.75 66.3611 226.889C66.6111 227.611 65.6944 228.194 65.1667 227.667C61.5278 224.083 56.4722 216.833 54.8056 215.167C52.7222 213.083 49.5278 209.194 49.5278 209.194L57.1667 202.472L62.1944 205L61.25 207.139Z" fill="#0B4870"/>
<path d="M88.5833 217.139C88.5833 217.139 100.722 223.917 106.778 226.389C107.5 226.694 107.333 227.75 106.556 227.806C101.472 228.167 92.6667 227.167 90.3333 227.306C87.4167 227.5 82.3611 227.306 82.3611 227.306V217.139L87.5833 215.028L88.5833 217.139Z" fill="#083751"/>
<path d="M100.889 99.4167C100.889 99.4167 99.7222 160.167 99.0556 161.528C98.3889 162.861 88.5833 217.167 88.5833 217.167H82.3611C82.3611 217.167 83.4722 160.417 85.9167 158.306C85.9167 153.306 84.2222 99.9167 88.9722 96.1111C95.9167 95.6944 100.889 99.4167 100.889 99.4167Z" fill="#083751"/>
<path d="M79.8333 93.5556C70.8611 100.167 69.0556 131.056 78.1944 154.917C72.2222 165.639 54.3611 208.167 54.3611 208.167L59.6389 211.333C59.6389 211.333 96.0556 161.25 94.6667 156.083C93.2778 150.917 95.9167 95.6667 95.9167 95.6667L79.8333 93.5556Z" fill="#0B4870"/>
<path d="M105.583 56.8056C105.778 57.5556 106.028 58.3056 106.333 59.0278C108.278 63.6389 110.944 73.1667 110.75 74.75C110.528 76.4722 104.444 82.3333 102.833 86.8056C101.222 91.2778 100.944 99.4167 100.944 99.4167L79.8889 93.5556C79.8889 93.5556 85.75 79.1111 85.9722 72.5833C86.1944 66.0556 88.4444 52.5556 96.75 51.1944C103.083 50.1389 105.028 54.6944 105.583 56.8056Z" fill="#80A495"/>
<path d="M112 29.25C112.389 28.2778 112.25 27.1667 111.639 26.3056C108.472 22 102.778 19.5833 97.5 20.5278C91.6389 21.5833 86.7222 26.6389 85.8333 32.5278C85.5 34.8056 85.6944 37.1389 85.2222 39.3889C84.6667 42.0278 83.1389 44.4722 81 46.1111C78.3333 48.1667 74.8889 48.9444 71.9167 50.5556C68.9167 52.1944 66.4444 54.6389 64.3333 57.3333C62.2222 60.0278 60.3889 63.0556 59.8056 66.4444C59.2222 69.8333 60.0556 73.5833 62.5833 75.8889C64.1944 77.3611 66.2778 78.1111 68.3333 78.8056C72.4444 80.1944 76.75 81.4444 81.0556 80.9722C85.3611 80.5 89.7222 77.9444 91.0556 73.8056C92.9167 67.9722 88.3333 61.8333 89.1667 55.7778C89.75 51.6667 92.75 48.2778 96.0833 45.8055C99.4167 43.3333 103.194 41.4444 106.361 38.7778C108.722 36.8056 110.972 31.75 112 29.25Z" fill="#0B4870"/>
<path d="M106.306 46.6944C105.25 48.8611 104.278 54.5556 105.194 56.9722C106.028 59.3611 105.722 59.75 105.722 59.75L96.4722 52.1667L98.6111 41.75L106.306 46.6944Z" fill="#FCD2B1"/>
<path d="M113.833 37.9445C113.833 43.3056 112.444 48.7778 108 48.7778C103.556 48.7778 97.7222 43.3056 97.7222 37.9445C97.7222 32.5833 101.333 28.2222 105.778 28.2222C110.222 28.2222 113.833 32.5833 113.833 37.9445Z" fill="#FFE3CA"/>
<path d="M113.361 27.25C114.944 27.1111 116.028 28.8055 115.25 30.1667C113.722 32.9167 111 35.6667 104.667 34.8889C101.778 34.5278 97.1667 34.8889 96.8889 36.8333L94.6667 31.5555C94.6667 31.5555 95.2222 28.2222 95.7778 28.2222H101.833L113.361 27.25Z" fill="#0B4870"/>
<path d="M101.333 34.3333C100.5 36 100.056 38.9722 98.9444 39.5278C97.5556 38.7222 95.8333 34.5278 95.9445 34.5556C96.0556 34.5833 97.4444 33.75 97.7222 33.75C98 33.75 101.333 34.3333 101.333 34.3333Z" fill="#0B4870"/>
<path d="M99.2498 42.1934C100.033 41.8413 100.21 40.5349 99.6439 39.2755C99.0779 38.0161 97.9839 37.2806 97.2003 37.6328C96.4166 37.9849 96.2402 39.2913 96.8062 40.5507C97.3721 41.8101 98.4662 42.5456 99.2498 42.1934Z" fill="#FFE3CA"/>
<path d="M98.5278 43.9444C99.3255 43.9444 99.9722 43.2977 99.9722 42.5C99.9722 41.7023 99.3255 41.0556 98.5278 41.0556C97.73 41.0556 97.0833 41.7023 97.0833 42.5C97.0833 43.2977 97.73 43.9444 98.5278 43.9444Z" fill="#FFBE55"/>
<path d="M121.278 142.333L104.028 127.083C103.417 126.556 103.361 125.611 103.889 125L114.583 111.806C115.111 111.194 116.056 111.139 116.667 111.667L135 127.861C135.611 128.389 135.667 129.333 135.139 129.944L123.361 142.194C122.806 142.806 121.889 142.861 121.278 142.333Z" fill="#80A495"/>
<path d="M138.25 147.25L122.472 139.944L126.556 135.222L139.556 143.861L139.75 144L138.25 147.25ZM131.917 112.556C133.861 114.222 134.5 117.306 133.694 121.25L132.25 128.389L116.167 114.472L123.278 112C126.944 110.694 130 110.889 131.917 112.556ZM132.833 111.5C130.611 109.583 127.111 109.167 122.806 110.667L113.444 113.944L133.167 130.972L135.083 121.5C136 116.917 135.083 113.444 132.833 111.5Z" fill="#80A495"/>
<path d="M138.25 147.25C137.25 145.389 138.278 144.389 139.556 143.861L139.75 144L138.25 147.25Z" fill="#80A495"/>
<path d="M92 58.7778C91.6111 71.3889 96.7222 103.722 106.306 116.472C107.944 115.611 109.722 114.639 109.722 114.639C109.722 114.639 97.5 86.5278 101.417 62.9167C101.833 60 101.417 57.9167 100.528 56.4722C98.1944 52.5556 92.1389 54.25 92 58.7778Z" fill="#80A495"/>
<path d="M106.306 116.5C106.306 116.5 109.056 122.194 109.722 122.806C110.361 123.417 115.083 125.944 116.417 126.444C117.75 126.917 114.611 124.056 114.611 124.056C114.611 124.056 117.056 125.611 118.194 126.222C118.361 126.306 118.5 126.111 118.389 125.972C117.528 124.944 115.417 123.278 115.417 123.278C115.417 123.278 118.722 125.25 120.194 126.028C120.361 126.111 120.5 125.917 120.389 125.778C119.333 124.778 116.944 122.917 116.528 122.694C118.278 123.444 119.528 124.167 120.306 124.528C120.417 124.583 120.5 124.444 120.417 124.361C118.889 122.972 112.389 118.361 112.056 118.278C110.722 117.972 109.472 114.806 109.472 114.806L106.306 116.5Z" fill="#FCD2B1"/>
<path d="M122.472 113L121.306 112.444L121.167 112.25C121.167 112.25 124.306 109.056 125.111 108.694C125.639 108.472 127.861 109.333 129.278 109.917C129.694 110.083 129.667 110.694 129.222 110.833L122.472 113Z" fill="#FFE4D2"/>
<path d="M185.028 75.2222H186.639V227.889H185.028V75.2222Z" fill="#80A495"/>
<path d="M155.778 13.6111C152.361 13.6111 149.611 16.3889 149.611 19.7778C149.611 16.3611 146.833 13.6111 143.444 13.6111C146.861 13.6111 149.611 10.8333 149.611 7.44444C149.583 10.8333 152.361 13.6111 155.778 13.6111Z" fill="#FFBE55"/>
<path d="M158.722 13.6111C153.667 13.6111 149.583 17.6944 149.583 22.75C149.583 17.6944 145.5 13.6111 140.444 13.6111C145.5 13.6111 149.583 9.52778 149.583 4.47222C149.583 9.52778 153.694 13.6111 158.722 13.6111Z" stroke="#FFBE55" stroke-width="0.333333" stroke-miterlimit="10"/>
<path d="M236.639 63.7778C234.667 63.7778 233.056 65.3889 233.056 67.3333C233.056 65.3611 231.444 63.7778 229.5 63.7778C231.472 63.7778 233.056 62.1667 233.056 60.2222C233.056 62.1667 234.667 63.7778 236.639 63.7778Z" fill="#FFBE55"/>
<path d="M238.333 63.7778C235.417 63.7778 233.056 66.1389 233.056 69.0556C233.056 66.1389 230.694 63.7778 227.778 63.7778C230.694 63.7778 233.056 61.4167 233.056 58.5C233.056 61.4167 235.417 63.7778 238.333 63.7778Z" stroke="#FFBE55" stroke-width="0.25" stroke-miterlimit="10"/>
<path d="M141.889 145.556L180.472 163.694M139.75 149.111L164.75 196.833M147.583 153.778L180.472 196.833M155.194 156.917L181.361 176.694" stroke="#80A495" stroke-width="0.333333" stroke-miterlimit="10" stroke-dasharray="4 4.67"/>
<path d="M179.611 80.3889H191.917V86.5278C191.917 89.9167 189.167 92.6667 185.778 92.6667C182.389 92.6667 179.639 89.9167 179.639 86.5278V80.3889H179.611Z" fill="#0E538C"/>
<path d="M185.833 86.6944C204.887 86.6944 220.333 71.2483 220.333 52.1944C220.333 33.1406 204.887 17.6944 185.833 17.6944C166.78 17.6944 151.333 33.1406 151.333 52.1944C151.333 71.2483 166.78 86.6944 185.833 86.6944Z" fill="#FFBE55"/>
<path d="M185.833 78.0833C200.131 78.0833 211.722 66.4925 211.722 52.1944C211.722 37.8964 200.131 26.3056 185.833 26.3056C171.535 26.3056 159.944 37.8964 159.944 52.1944C159.944 66.4925 171.535 78.0833 185.833 78.0833Z" stroke="#F7F7F7" stroke-width="0.333333" stroke-miterlimit="10"/>
<path d="M187.111 41.2222C189.444 41.6667 190.833 43.4167 190.833 46.1944V46.6389L187.611 46.9444V46.4444C187.611 44.8889 187.056 44.1667 185.833 44.1667C184.833 44.1667 184.139 44.7778 184.139 46.0278V46.4444C184.139 47.6667 184.806 48.6944 186.972 50.6667C189.944 53.4167 190.972 55.1944 190.972 57.5833V58.1111C190.972 60.8889 189.472 62.5833 187.111 63V65.3056H184.472V63C182.139 62.5 180.667 60.75 180.667 58.0278V56.7778L183.889 56.4722V57.8056C183.889 59.3611 184.528 60.0833 185.833 60.0833C186.806 60.0833 187.667 59.4722 187.667 58.2222V57.75C187.667 56.5278 187 55.5 184.833 53.5278C181.861 50.7778 180.833 49 180.833 46.6111V46.1389C180.833 43.3889 182.194 41.6944 184.5 41.25V39.2778H187.139V41.2222H187.111Z" fill="#F7F7F7"/>
</g>
<defs>
<clipPath id="clip0_128_42">
<rect width="279" height="241" fill="white"/>
</clipPath>
</defs>
</svg>
